<?xml version="1.0" encoding="UTF-8"?>
<svg xmlns="http://www.w3.org/2000/svg" width="1732" height="309" viewBox="0 0 1732 309" fill="none">
  <g clip-path="url(#clip0_782_4330)">
    <path fill-rule="evenodd" clip-rule="evenodd" d="M257.519 180.039C258.162 224.419 222.2 260.731 177.898 260.731L128.788 260.673C112.964 260.662 100.147 247.84 100.147 232.038C100.147 216.225 112.987 203.403 128.821 203.403H177.347C189.384 203.403 199.608 194.694 200.089 182.078C200.571 169.463 190.428 159.047 177.898 159.047H80.8353C37.1408 159.047 0.674918 124.396 0.00939861 80.7609C-0.667595 36.3469 35.3164 0 79.6305 0H214.513C230.371 0 243.222 12.8337 243.222 28.6696C243.222 44.5055 230.371 57.3392 214.513 57.3392H80.1702C68.1333 57.3392 57.9096 66.0478 57.4277 78.6636C56.9457 91.2802 67.0891 101.695 79.6195 101.695H176.624C220.353 101.695 256.888 136.37 257.519 180.039ZM71.5297 232.153C71.5297 247.936 58.7173 260.731 42.9125 260.731C27.1076 260.731 14.2952 247.936 14.2952 232.153C14.2952 216.37 27.1076 203.575 42.9125 203.575C58.7173 203.575 71.5297 216.37 71.5297 232.153Z" fill="#8B5CF6"></path>
    <path d="M952.013 88.4616V120.729C952.013 122.241 950.783 123.468 949.271 123.468H914.881V241.481C914.881 242.993 913.652 244.219 912.14 244.219H874.57C873.058 244.219 871.828 242.993 871.828 241.481V22.5052C871.828 20.9925 873.058 19.7665 874.57 19.7665H912.14C913.652 19.7665 914.881 20.9925 914.881 22.5052V85.7228H949.271C950.783 85.7228 952.013 86.9486 952.013 88.4616Z" fill="#8B5CF6"></path>
    <path d="M486.952 129.528C480.491 124.83 473.32 121.048 465.425 118.207C457.531 115.365 449.384 113.119 440.951 111.48C432.517 109.842 424.359 108.203 416.476 106.553C408.593 104.914 401.467 102.944 395.121 100.652C388.764 98.3605 383.681 95.186 379.837 91.1409C376.005 87.0965 374.089 81.6761 374.089 74.9043C374.089 67.2499 377.267 61.0736 383.612 56.3641C389.969 51.6661 398.725 49.3056 409.901 49.3056C421.949 49.3056 431.748 52.2047 439.31 58.0028C445.873 63.0446 450.589 70.6761 453.423 80.9087C453.813 82.3066 455.191 83.2008 456.625 82.9027L496.877 74.6751C498.472 74.3543 499.447 72.7042 498.943 71.1573C495.156 59.6184 490.922 51.5056 485.322 44.7107C476.67 34.2145 465.942 26.4455 453.125 21.4151C440.308 16.3849 426.344 13.8639 411.232 13.8639C393.71 13.8639 378.817 16.8202 366.55 22.7215C354.284 28.6227 344.978 36.5062 338.621 46.3493C332.265 56.1923 329.086 67.0207 329.086 78.8349C329.086 89.9956 330.945 99.2312 334.674 106.564C338.403 113.898 343.44 119.857 349.786 124.452C356.143 129.046 363.315 132.714 371.312 135.441C379.31 138.179 387.525 140.471 395.959 142.327C404.393 144.183 412.551 145.994 420.434 147.736C428.317 149.489 435.443 151.62 441.788 154.13C448.145 156.65 453.182 160.088 456.9 164.465C460.618 168.842 462.488 174.641 462.488 181.859C462.488 190.831 458.988 197.993 451.977 203.356C444.966 208.719 434.559 211.4 420.767 211.4C406.974 211.4 396.51 208.226 388.076 201.89C380.881 196.481 375.718 189.067 372.586 179.66C372.127 178.262 370.692 177.448 369.27 177.826L331.128 188.139C329.602 188.552 328.708 190.19 329.247 191.679C332.391 200.526 336.67 208.306 342.087 215.021C350.738 225.735 361.696 233.721 374.949 238.97C388.203 244.218 403.372 246.842 420.457 246.842C437.542 246.842 452.333 244.103 465.471 238.637C478.61 233.171 488.96 225.127 496.521 214.517C504.083 203.906 507.858 191.164 507.858 176.29C507.858 164.912 505.999 155.459 502.27 147.908C498.541 140.356 493.458 134.237 486.986 129.528H486.952Z" fill="#8B5CF6"></path>
    <path d="M810.797 88.8395C801.695 83.0522 791.245 80.1421 779.413 80.1421C767.583 80.1421 756.578 82.7659 747.043 88.0142C741.88 90.8562 737.347 94.3162 733.411 98.3496V86.1461C733.411 84.6339 732.184 83.4073 730.669 83.4073H693.102C691.587 83.4073 690.359 84.6339 690.359 86.1461V239.165C690.359 240.678 691.587 241.904 693.102 241.904H730.669C732.184 241.904 733.411 240.678 733.411 239.165V151.002C733.411 144.883 734.777 139.349 737.519 134.433C740.251 129.517 744.036 125.736 748.856 123.112C753.676 120.488 759.149 119.17 765.287 119.17C774.49 119.17 782.04 122.126 787.962 128.028C793.869 133.929 796.83 141.595 796.83 151.002V239.165C796.83 240.678 798.06 241.904 799.572 241.904H837.47C838.99 241.904 840.212 240.678 840.212 239.165V141.159C840.212 130.663 837.588 120.763 832.332 111.458C827.075 102.166 819.892 94.6142 810.821 88.816L810.797 88.8395Z" fill="#8B5CF6"></path>
    <path d="M1093.42 87.8546C1084.22 82.7213 1073.6 80.1429 1061.55 80.1429C1049.5 80.1429 1038.76 82.7667 1029.35 88.015C1024.38 90.7764 1020.01 94.1222 1016.21 98.0188V22.8267C1016.21 21.3142 1014.99 20.088 1013.47 20.088H975.906C974.386 20.088 973.156 21.3142 973.156 22.8267V239.178C973.156 240.691 974.386 241.917 975.906 241.917H1013.47C1014.99 241.917 1016.21 240.691 1016.21 239.178V151.015C1016.21 144.896 1017.58 139.361 1020.32 134.446C1023.05 129.53 1026.84 125.748 1031.66 123.124C1036.47 120.501 1041.95 119.183 1048.08 119.183C1057.29 119.183 1064.84 122.139 1070.76 128.04C1076.67 133.942 1079.63 141.607 1079.63 151.015V239.178C1079.63 240.691 1080.86 241.917 1082.37 241.917H1120.27C1121.79 241.917 1123.01 240.691 1123.01 239.178V141.172C1123.01 129.14 1120.39 118.529 1115.13 109.34C1109.88 100.15 1102.64 92.9879 1093.45 87.8546H1093.42Z" fill="#8B5CF6"></path>
    <path d="M1205.07 64.066C1209.31 59.345 1215.19 56.7438 1222.7 56.2626C1224.14 56.1709 1225.28 55.0479 1225.28 53.6157V19.2739C1225.28 17.7385 1224 16.4781 1222.47 16.5239C1209.38 16.9135 1197.84 20.0187 1187.83 25.8283C1177.09 32.0618 1168.87 40.3236 1163.17 50.602C1157.59 60.6971 1154.75 71.6401 1154.65 83.4198H1154.63V239.166C1154.63 240.678 1155.86 241.905 1157.37 241.905H1195.27C1196.79 241.905 1198.01 240.678 1198.01 239.166V123.445H1232.41C1233.93 123.445 1235.16 122.218 1235.16 120.706V88.4389C1235.16 86.926 1233.93 85.7002 1232.41 85.7002H1198.01C1198.01 78.0455 1200.37 69.291 1205.08 64.043L1205.07 64.066Z" fill="#8B5CF6"></path>
    <path d="M1300.41 19.7665H1262.86C1261.34 19.7665 1260.11 20.9926 1260.11 22.5052V239.166C1260.11 240.678 1261.34 241.905 1262.86 241.905H1300.41C1301.92 241.905 1303.15 240.678 1303.15 239.166V22.5052C1303.15 20.9926 1301.92 19.7665 1300.41 19.7665Z" fill="#8B5CF6"></path>
    <path d="M1453.59 90.6489C1440.78 83.43 1426.26 79.8206 1410.06 79.8206C1393.86 79.8206 1379.66 83.4871 1366.85 90.8092C1354.03 98.1431 1343.9 107.986 1336.45 120.339C1329 132.703 1325.27 146.647 1325.27 162.174C1325.27 177.701 1328.99 192.092 1336.45 204.663C1343.9 217.244 1354.03 227.202 1366.85 234.524C1379.66 241.858 1394.07 245.513 1410.06 245.513C1426.05 245.513 1440.83 241.858 1453.77 234.524C1466.68 227.202 1476.88 217.187 1484.33 204.502C1491.77 191.818 1495.49 177.712 1495.49 162.174C1495.49 146.636 1491.71 132.645 1484.15 120.178C1476.59 107.711 1466.41 97.8677 1453.59 90.6489ZM1446.04 184.496C1442.64 190.844 1437.82 195.874 1431.57 199.587C1425.33 203.311 1418.15 205.167 1410.06 205.167C1401.97 205.167 1395.16 203.311 1389.02 199.587C1382.89 195.874 1378.13 190.844 1374.73 184.496C1371.33 178.159 1369.63 170.825 1369.63 162.507C1369.63 154.187 1371.33 146.865 1374.73 140.517C1378.13 134.18 1382.89 129.196 1389.02 125.586C1395.16 121.977 1402.18 120.178 1410.06 120.178C1417.94 120.178 1425.23 121.988 1431.25 125.586C1437.28 129.196 1442.1 134.169 1445.71 140.517C1449.33 146.865 1451.14 154.187 1451.14 162.507C1451.14 170.825 1449.44 178.147 1446.04 184.496H1446.04Z" fill="#8B5CF6"></path>
    <path d="M590.199 170.609L555.466 85.1267C555.041 84.0957 554.042 83.419 552.93 83.419H511.564C509.613 83.419 508.283 85.4013 509.04 87.2006L566.469 224.785L531.484 304.675C530.692 306.485 532.023 308.502 533.997 308.502H574.031C575.11 308.502 576.097 307.86 576.532 306.875L673.997 87.2467C674.8 85.4357 673.469 83.4081 671.496 83.4081H630.176C629.085 83.4081 628.099 84.0496 627.663 85.0462L590.199 170.597V170.609Z" fill="#8B5CF6"></path>
    <path d="M1548.85 85.7229H1505.29C1503.42 85.7229 1502.1 87.5448 1502.7 89.3206L1552.78 240.082C1553.14 241.205 1554.2 241.95 1555.37 241.95H1598.94C1600.81 241.95 1602.13 240.128 1601.53 238.352L1551.45 87.5902C1551.08 86.4676 1550.03 85.7229 1548.85 85.7229Z" fill="#8B5CF6"></path>
    <path d="M1630.9 85.7229H1587.33C1585.46 85.7229 1584.14 87.5448 1584.74 89.3206L1634.83 240.082C1635.19 241.205 1636.24 241.95 1637.42 241.95H1680.98C1682.85 241.95 1684.18 240.128 1683.57 238.352L1633.49 87.5902C1633.13 86.4676 1632.07 85.7229 1630.9 85.7229Z" fill="#8B5CF6"></path>
    <path d="M1702.62 142.569C1718.48 142.569 1731.33 129.733 1731.33 113.9C1731.33 98.0656 1718.48 85.23 1702.62 85.23C1686.77 85.23 1673.91 98.0656 1673.91 113.9C1673.91 129.733 1686.77 142.569 1702.62 142.569Z" fill="#8B5CF6"></path>
  </g>
  <defs>
    <clipPath id="clip0_782_4330">
      <rect width="1732" height="309" fill="white"></rect>
    </clipPath>
  </defs>
</svg>
